<?xml version="1.0" encoding="UTF-8"?><svg id="Layer_2" xmlns="http://www.w3.org/2000/svg" viewBox="0 0 152.4 148.6"><defs><style>.cls-1{fill:#4d4d4d;fill-rule:evenodd;}</style></defs><g id="Layer_3"><g id="layer"><path class="cls-1" d="M76.2,0C34.1,0,0,34.1,0,76.2c0,33.7,21.8,62.2,52.1,72.3,3.8.6,5.3-1.6,5.3-3.6,0-1.8-.1-7.8-.1-14.2-19.1,3.5-24.1-4.7-25.6-8.9-.9-2.2-4.6-9-7.8-10.8-2.7-1.4-6.5-5-.1-5.1,6-.1,10.3,5.5,11.7,7.8,6.9,11.5,17.8,8.3,22.2,6.3.7-4.9,2.7-8.3,4.9-10.2-16.9-1.9-34.7-8.5-34.7-37.6,0-8.3,3-15.2,7.8-20.5-.8-1.9-3.4-9.7.8-20.2,0,0,6.4-2,21,7.8,6.1-1.7,12.6-2.6,19-2.6s12.9.9,19,2.6c14.6-9.9,20.9-7.8,20.9-7.8,4.2,10.5,1.5,18.3.8,20.2,4.9,5.3,7.8,12.1,7.8,20.5,0,29.2-17.8,35.7-34.8,37.6,2.8,2.4,5.2,6.9,5.2,14.1,0,10.2-.1,18.4-.1,20.9,0,2,1.4,4.4,5.2,3.6,31-10.5,51.9-39.6,51.9-72.3,0-42-34.1-76.1-76.2-76.1h0Z"/></g></g></svg>